# xmcd
# Copyright (C) 1995-1998 Ti Kan
#
# Track frame offsets:
#       150
#       18235
#       42105
#       61263
#       80512
#       98043
#       119061
#       138775
#       159665
#       179263
#       196075
#       212621
#       231737
#
# Disc length: 3327 seconds
#
# Revision: 0
# Processed by: cddbd v1.5.2PL0 Copyright (c) Steve Scherf et al.
# Submitted via: CD-Import v1.0
#
DISCID=ac0cfd0d
DTITLE=Tribal - Cardboard Heroes
DYEAR=2005
DGENRE=
TTITLE0=TV Nation
TTITLE1=Final Illusion
TTITLE2=Free
TTITLE3=Pickin' Up The Pieces
TTITLE4=Between Us
TTITLE5=Daddy
TTITLE6=Feed The Public
TTITLE7=Got To Lose To Get It All
TTITLE8=Different But The Same
TTITLE9=Waitin' For Another Day
TTITLE10=Deny
TTITLE11=I'm A Loser (Baby)
TTITLE12=Too Many Times
EXTD=
EXTT0=
EXTT1=
EXTT2=
EXTT3=
EXTT4=
EXTT5=
EXTT6=
EXTT7=
EXTT8=
EXTT9=
EXTT10=
EXTT11=
EXTT12=
PLAYORDER=
